<svg width="114" height="27" viewBox="0 0 114 27" fill="none" xmlns="http://www.w3.org/2000/svg">
<path d="M82.9547 25.7325C81.3729 25.7325 79.8871 25.7325 78.3337 25.7325C78.3337 23.5178 78.3337 21.3399 78.3337 19.0826C77.23 19.0826 76.1936 19.0826 75.1561 19.0826C74.0121 19.0826 74.0133 19.0815 73.6217 18.0321C73.5815 17.9256 73.5164 17.8274 73.4656 17.7293C72.8149 18.1066 72.2115 18.5243 71.5561 18.8259C69.0588 19.9735 66.5413 20.0291 64.1149 18.6721C61.7453 17.3471 60.8509 14.9196 61.7559 12.5263C62.2102 11.3255 63.1412 10.5305 64.2001 9.88694C65.7486 8.94406 67.4983 8.62819 69.2528 8.33953C69.9922 8.21768 70.7339 8.11476 71.4698 7.97516C72.1394 7.84739 72.7522 7.57293 72.893 6.82998C73.0432 6.03735 72.7971 5.35711 72.1051 4.86615C70.9528 4.05104 68.524 4.04749 67.4747 4.99037C67.037 5.38313 66.8311 6.03262 66.507 6.55788C66.4088 6.71759 66.2727 6.97668 66.1485 6.98023C65.0258 7.01453 63.9019 7.00389 62.7792 7.00152C62.6254 7.00152 62.4728 6.97668 62.2611 6.95893C62.3072 5.39023 62.8325 4.0605 63.8948 2.94609C64.7088 2.09194 65.7238 1.60216 66.8548 1.31232C69.2019 0.712523 71.5431 0.680581 73.8465 1.47203C75.9629 2.19959 77.256 3.67838 77.3743 5.95572C77.5494 9.33919 77.6097 12.7274 77.76 16.1121C77.7966 16.939 77.9907 17.7588 78.1125 18.5822C78.1859 18.5763 78.2592 18.5692 78.3314 18.5633C78.3314 18.2037 78.3314 17.8452 78.3314 17.4856C78.3314 12.3808 78.3432 7.2748 78.3148 2.17002C78.3113 1.54656 78.5005 1.40578 79.0802 1.42471C80.2987 1.46493 81.5196 1.43654 82.8127 1.43654C82.8328 1.85533 82.8506 2.23627 82.8742 2.72249C83.1167 2.54386 83.2942 2.40426 83.4787 2.27767C85.762 0.705425 88.1872 0.245226 90.8053 1.36201C92.3314 2.01268 93.4328 3.20281 94.139 4.60233C96.0745 8.43299 96.1443 12.3346 93.7865 16.0198C91.5328 19.544 87.0338 20.2657 83.6314 17.8133C83.4421 17.6772 83.254 17.5376 82.9547 17.3176C82.9547 20.177 82.9547 22.9346 82.9547 25.7325ZM90.7982 11.2664C90.8455 11.0368 90.8715 10.8038 90.8822 10.5695C90.8881 10.4359 90.9011 10.256 90.9023 10.0656C90.8928 8.8506 90.7083 7.66875 90.1806 6.5638C89.5335 5.21041 88.4084 4.49704 86.9462 4.45564C85.4248 4.41305 84.1436 5.02941 83.435 6.42775C82.3087 8.6483 82.3288 10.9517 83.267 13.2278C83.9153 14.8001 85.2107 15.5406 86.8681 15.5265C88.4972 15.5111 89.7145 14.6818 90.3025 13.171C90.616 12.3618 90.655 11.9667 90.7982 11.2664ZM73.2301 10.327C72.1843 10.6311 71.2592 10.876 70.3495 11.1729C69.3048 11.5124 68.2448 11.8318 67.2487 12.2838C66.4088 12.6647 65.9994 13.4396 66.1189 14.3742C66.2337 15.2733 66.8548 15.7678 67.6876 16.0292C68.7843 16.3735 69.8632 16.2824 70.9291 15.9038C72.6114 15.3052 73.2112 14.4653 73.2301 12.6801C73.2372 11.8957 73.2301 11.1114 73.2301 10.327Z" fill="white"/>
<path d="M21.6767 1.29456C21.6531 4.75729 22.2162 8.11355 21.7323 11.4828C21.297 14.5126 19.8182 16.7426 16.9694 18.0534C13.5375 19.6327 9.99901 20.4573 6.23342 19.7439C5.24322 19.5558 4.26486 19.1654 3.3551 18.7171C-0.779593 16.6811 -1.08482 10.9789 2.39566 8.21884C4.19742 6.78974 6.28666 5.97818 8.45634 5.37128C11.0141 4.65555 13.6262 4.12792 16.1721 3.37433C17.9194 2.85734 19.5934 2.09547 21.3005 1.44362C21.3869 1.41049 21.4744 1.375 21.6767 1.29456Z" fill="white"/>
<path d="M56.567 2.99337C56.567 2.42078 56.567 1.97596 56.567 1.43768C57.3513 1.43768 58.0919 1.43768 58.8325 1.43768C59.56 1.43768 60.2864 1.43768 61.0791 1.43768C61.0992 1.68375 61.1311 1.8896 61.1299 2.09545C61.1181 7.49599 61.1181 12.8954 61.0838 18.2959C61.0613 21.871 58.0186 25.3976 54.3488 26.1465C52.1105 26.6031 49.9396 26.4363 47.9462 25.2403C45.8558 23.9875 44.7769 22.0875 44.5485 19.5747C44.8408 19.5747 45.088 19.5747 45.3353 19.5747C45.9268 19.5747 46.523 19.6233 47.1074 19.5641C48.0988 19.4635 48.7613 19.5878 49.1269 20.7637C49.5433 22.1041 50.7346 22.6897 52.1365 22.7465C53.5621 22.8044 54.7924 22.4247 55.6016 21.1505C56.3091 20.0361 56.535 18.7939 56.5717 17.4216C56.4179 17.5139 56.3162 17.5589 56.2334 17.6263C52.4891 20.6513 47.8125 19.8208 45.2998 15.6826C43.22 12.2553 43.4128 7.04407 45.7363 3.91614C48.3201 0.438022 52.773 -0.102623 56.1292 2.65502C56.2357 2.74139 56.3446 2.82183 56.567 2.99337ZM49.1517 6.81575C48.4455 8.73818 48.3709 10.844 48.9269 12.8161C48.9553 12.9155 48.9849 13.0148 49.0169 13.113C49.509 14.6486 50.9606 15.6802 52.5506 15.7074C54.2127 15.7358 55.4466 14.9645 56.1103 13.449C57.1265 11.1279 56.9952 8.78668 55.8702 6.54838C55.1876 5.19145 53.9548 4.50765 52.4299 4.57035C50.9192 4.63187 49.7101 5.31803 49.1647 6.78617C49.16 6.79564 49.1565 6.8051 49.1517 6.81575Z" fill="white"/>
<path d="M32.4336 6.9305C31.0045 6.9305 29.65 6.9305 28.2197 6.9305C28.1913 5.81609 28.4953 4.82352 29.0194 3.88893C29.5187 2.99929 30.2604 2.35217 31.1796 1.94166C34.4708 0.468783 37.7975 0.493627 41 2.08954C42.7012 2.93777 43.3566 4.63661 43.4323 6.48805C43.5482 9.36164 43.5766 12.2388 43.6831 15.1135C43.7316 16.422 43.689 17.7529 44.3373 19.0826C43.4548 19.0826 42.6763 19.0826 41.8991 19.0826C41.7417 19.0826 41.5832 19.0838 41.4259 19.0826C40.4901 19.0708 39.3284 19.4233 39.5117 17.6038C39.4526 17.65 39.3922 17.6961 39.3331 17.7422C39.1012 17.8984 38.8646 18.0475 38.6386 18.2107C35.7864 20.2692 31.5842 20.1923 29.0561 18.0309C26.6948 16.0138 26.6545 12.8315 28.9614 10.7529C30.445 9.41724 32.2739 8.90617 34.1751 8.57492C35.1842 8.39865 36.1992 8.2555 37.2095 8.08988C38.2104 7.92662 38.7901 7.4747 38.9084 6.77908C39.0503 5.94859 38.589 5.06486 37.7135 4.66973C36.3779 4.06638 35.0174 4.15156 33.7196 4.77739C32.8773 5.18553 32.4668 5.94504 32.4336 6.9305ZM39.0645 10.4417C37.5266 10.8665 36.0289 11.2604 34.5442 11.7017C34.0402 11.8519 33.5445 12.0755 33.0914 12.3429C32.4029 12.7498 32.0196 13.3686 32.0492 14.2026C32.087 15.278 32.8714 16.0517 34.136 16.2469C35.3687 16.4373 36.5198 16.1712 37.6283 15.6364C38.4364 15.2472 38.9805 14.619 39.0444 13.7365C39.1237 12.6304 39.0645 11.5136 39.0645 10.4417Z" fill="white"/>
<path d="M113.317 11.2687C109.065 11.2687 104.837 11.2687 100.577 11.2687C100.426 12.1548 100.652 12.893 101.071 13.5768C102.692 16.2197 106.877 16.2611 108.293 13.7341C108.372 13.5957 108.583 13.449 108.735 13.4467C110.114 13.4266 111.494 13.436 112.873 13.4419C112.925 13.4419 112.976 13.4845 113.102 13.5413C113.005 13.8335 112.936 14.1364 112.809 14.412C111.552 17.1425 109.376 18.6414 106.451 19.1347C102.609 19.783 98.9038 18.096 97.0097 14.8308C94.9181 11.2261 95.6362 5.82439 98.5074 2.96855C101.477 0.0145167 108.606 -0.948472 111.919 5.18673C112.887 6.97903 113.295 8.905 113.357 10.9209C113.36 11.0155 113.337 11.109 113.317 11.2687ZM108.31 8.05322C108.42 6.59099 107.868 5.48249 106.644 4.85903C105.166 4.10426 103.596 3.99305 102.148 4.97142C101.097 5.68124 100.566 6.71876 100.587 8.05322C103.184 8.05322 105.719 8.05322 108.31 8.05322Z" fill="white"/>
</svg>
