<svg width="31" height="31" viewBox="0 0 31 31" fill="none" xmlns="http://www.w3.org/2000/svg">
<path d="M30.988 30.9872C30.1928 30.9872 29.3984 30.9872 28.5813 30.9872C28.4843 26.8652 26.8864 23.4633 23.7202 20.8519C21.1657 18.7454 18.1891 17.7957 14.8849 17.9313C12.6374 18.0238 10.5438 18.6742 8.63367 19.8688C6.71743 21.068 5.19157 22.6529 4.08185 24.6253C2.97744 26.587 2.4438 28.7049 2.41879 30.969C1.61076 30.969 0.820918 30.969 0 30.969C0.0348682 27.6778 0.957359 24.6867 2.86677 22.0162C4.77315 19.3496 7.28593 17.469 10.4028 16.3441C10.3134 16.2683 10.2581 16.216 10.1974 16.1705C7.17981 13.9207 5.84648 10.224 6.87964 6.59084C7.83018 3.24805 10.0746 1.14383 13.4356 0.252415C13.9094 0.126587 14.4043 0.0818644 14.8902 0C15.2935 0 15.6975 0 16.1008 0C16.5859 0.0818644 17.0816 0.126587 17.5554 0.252415C20.9164 1.14459 23.1873 3.24198 24.1038 6.59388C25.0626 10.0996 24.0871 13.1385 21.4477 15.6361C21.1885 15.8817 20.8967 16.0924 20.5995 16.3373C20.6882 16.3774 20.7488 16.41 20.8133 16.4328C22.9092 17.1968 24.7534 18.3642 26.3399 19.9287C28.6912 22.2482 30.1761 25.0316 30.7477 28.291C30.8515 28.883 30.9106 29.4833 30.9902 30.0799C30.988 30.3816 30.988 30.6848 30.988 30.9872ZM15.4928 2.42182C11.9045 2.42334 8.97098 5.34999 8.95885 8.94369C8.94596 12.5374 11.8969 15.4944 15.4959 15.4928C19.0843 15.4913 22.0177 12.5647 22.0299 8.97098C22.042 5.37728 19.0911 2.42031 15.4928 2.42182Z" fill="white"/>
</svg>
