<svg width="35" height="30" viewBox="0 0 35 30" fill="none" xmlns="http://www.w3.org/2000/svg">
<path d="M0.000147843 10.6131C0.116826 6.92761 1.49769 3.92282 4.67155 1.96683C8.0702 -0.128567 12.4119 0.310334 15.5205 2.97968C16.1649 3.53293 16.7686 4.12975 17.2685 4.82132C17.4665 5.09577 17.5554 5.05656 17.7449 4.81261C19.2627 2.86206 21.151 1.45387 23.5648 0.898439C28.4246 -0.218961 33.1571 2.65186 34.5615 7.53532C35.4532 10.6338 34.9447 13.5405 33.4022 16.3057C31.8543 19.0796 29.7434 21.3689 27.4281 23.4806C25.1191 25.5858 22.6336 27.4579 20.0324 29.17C18.3507 30.2765 16.6498 30.2786 14.9703 29.1645C11.532 26.8829 8.27038 24.3725 5.41123 21.358C3.61503 19.4651 2.02114 17.4187 0.963545 14.9901C0.355534 13.5993 -0.00841569 12.1509 0.000147843 10.6131ZM32.989 10.6174C32.9687 10.1796 32.9633 9.7614 32.898 9.3421C32.4388 6.419 30.9573 4.25935 28.2138 3.19096C25.451 2.11495 22.9215 2.74117 20.6661 4.62746C19.7583 5.38655 19.0572 6.32208 18.4481 7.3371C17.9407 8.18441 17.0951 8.1855 16.5684 7.34799C16.4892 7.22275 16.4164 7.09315 16.3361 6.9679C15.6553 5.89842 14.8386 4.95854 13.8228 4.20381C10.6468 1.84159 6.39175 2.24237 3.89976 5.26893C1.85201 7.75531 1.50519 10.6218 2.59383 13.6451C3.41164 15.9169 4.86637 17.7803 6.46882 19.525C9.25732 22.5592 12.4933 25.0358 15.8726 27.3392C16.9891 28.1005 18.0167 28.107 19.13 27.3479C21.394 25.8047 23.6012 24.1863 25.6522 22.3599C27.7363 20.503 29.6845 18.5122 31.1832 16.1184C32.2343 14.4357 33.0125 12.6518 32.989 10.6174Z" fill="white"/>
</svg>
