<svg width="24" height="20" viewBox="0 0 24 20" fill="none" xmlns="http://www.w3.org/2000/svg">
<g clip-path="url(#clip0_139_461)">
<path d="M0.00010138 6.79126C0.0801112 4.28031 1.02702 2.23312 3.20343 0.900481C5.53399 -0.527136 8.51124 -0.228108 10.6429 1.59055C11.0848 1.96748 11.4988 2.3741 11.8416 2.84528C11.9773 3.03226 12.0383 3.00555 12.1682 2.83934C13.2091 1.51041 14.5039 0.550997 16.1591 0.172575C19.4917 -0.588722 22.7368 1.3672 23.6999 4.69435C24.3113 6.80536 23.9627 8.78577 22.9049 10.6697C21.8435 12.5596 20.396 14.1193 18.8083 15.558C17.225 16.9923 15.5205 18.2678 13.7368 19.4343C12.5837 20.1882 11.4173 20.1896 10.2656 19.4306C7.90786 17.8761 5.67125 16.1657 3.71065 14.1119C2.47894 12.8223 1.38596 11.428 0.660733 9.77338C0.243801 8.82584 -0.0057709 7.83897 0.00010138 6.79126ZM22.6216 6.79423C22.6076 6.49594 22.604 6.21101 22.5592 5.92534C22.2443 3.9338 21.2284 2.4624 19.3471 1.73449C17.4525 1.00139 15.718 1.42805 14.1714 2.7132C13.5489 3.23038 13.0681 3.86776 12.6505 4.55931C12.3025 5.13659 11.7226 5.13733 11.3615 4.56673C11.3072 4.4814 11.2573 4.3931 11.2022 4.30777C10.7354 3.57912 10.1753 2.93877 9.47869 2.42456C7.30081 0.815151 4.38302 1.08821 2.67419 3.15024C1.26998 4.84424 1.03215 6.79719 1.77867 8.857C2.33947 10.4048 3.33702 11.6744 4.43587 12.8631C6.34803 14.9303 8.56702 16.6176 10.8844 18.187C11.65 18.7056 12.3546 18.7101 13.118 18.1929C14.6705 17.1415 16.1841 16.0389 17.5905 14.7945C19.0197 13.5294 20.3556 12.173 21.3833 10.5421C22.1041 9.3957 22.6377 8.18029 22.6216 6.79423Z" fill="#3C0C10"/>
<path d="M22.6218 6.79415C22.6379 8.18022 22.1043 9.39562 21.3827 10.5413C20.3551 12.1722 19.0199 13.5286 17.59 14.7937C16.1836 16.0388 14.67 17.1414 13.1175 18.1921C12.3541 18.7093 11.6494 18.7041 10.8838 18.1862C8.56649 16.6168 6.3475 14.9295 4.43534 12.8623C3.33575 11.6736 2.33893 10.4047 1.77813 8.85618C1.03235 6.79638 1.26944 4.84268 2.67365 3.14943C4.38249 1.08739 7.30027 0.814337 9.47816 2.42375C10.1748 2.9387 10.7348 3.57905 11.2017 4.30695C11.256 4.39228 11.3066 4.48058 11.361 4.56591C11.7221 5.13577 12.3013 5.13503 12.6499 4.55849C13.0676 3.86694 13.5491 3.22956 14.1708 2.71239C15.7175 1.42723 17.4527 1.00058 19.3465 1.73368C21.2278 2.46159 22.2445 3.93298 22.5587 5.92452C22.6042 6.21094 22.6078 6.49661 22.6218 6.79415Z" fill="#E47347"/>
</g>
<defs>
<clipPath id="clip0_139_461">
<rect width="24" height="20" fill="white"/>
</clipPath>
</defs>
</svg>
