<svg width="17" height="16" viewBox="0 0 17 16" fill="none" xmlns="http://www.w3.org/2000/svg">
<path d="M3.02622 0.041121C3.78991 -0.144911 4.1671 0.321993 4.42955 1.00338C4.80817 1.98388 5.20686 2.95635 5.61058 3.92736C5.73105 4.21772 5.7669 4.50078 5.58476 4.75685C5.28001 5.18581 4.96592 5.61113 4.62244 6.008C4.22016 6.47271 4.19435 6.58652 4.50986 7.12127C5.85726 9.39962 7.7274 11.0571 10.1547 12.0559C10.6043 12.2404 10.7721 12.2105 11.0884 11.8224C11.5143 11.3001 11.9388 10.7755 12.3454 10.2371C12.5655 9.94531 12.8266 9.82786 13.1528 9.98398C14.3582 10.5618 15.5622 11.1432 16.7511 11.7546C16.8881 11.8246 17.0021 12.0916 17 12.266C16.9856 13.415 16.6852 14.4166 15.6891 15.1367C14.3855 16.0785 13.0008 16.1646 11.5007 15.8006C7.59116 14.8522 4.59448 12.5811 2.27544 9.30478C1.47374 8.17254 0.656988 7.04832 0.259009 5.68554C-0.29888 3.77562 0.0273915 2.07361 1.40419 0.607241C1.84519 0.137419 2.36292 -0.0442348 3.02622 0.041121Z" fill="white"/>
</svg>
