<svg width="35" height="31" viewBox="0 0 35 31" fill="none" xmlns="http://www.w3.org/2000/svg">
<path d="M9.15156 10.6292C14.604 10.6292 20.009 10.6292 25.4614 10.6292C25.3428 10.4635 25.2717 10.3215 25.2006 10.2031C23.4226 7.55154 21.6447 4.89997 19.8904 2.2484C19.7008 1.98798 19.5823 1.65654 19.5585 1.34877C19.5111 0.780573 19.8667 0.307079 20.3646 0.117682C20.8861 -0.0953907 21.4787 0.0466575 21.8343 0.496477C21.9766 0.662199 22.0714 0.827922 22.1899 0.993645C24.2761 4.09503 26.3385 7.19641 28.4009 10.3215C28.5669 10.5819 28.7328 10.6529 29.041 10.6529C30.416 10.6292 31.7909 10.6292 33.1659 10.6529C34.2089 10.6766 34.849 11.5526 34.4934 12.4522C34.2801 12.973 33.8296 13.3045 33.1659 13.2571C32.7155 13.2335 32.5258 13.3518 32.431 13.8253C31.5776 18.1578 30.7004 22.4903 29.847 26.8464C29.3492 29.3559 27.5001 30.9895 24.9398 30.9895C19.843 31.0132 14.7462 30.9895 9.62568 30.9895C7.42101 30.9895 5.19264 29.5453 4.64739 26.5386C3.86509 22.2535 2.94055 17.9684 2.08713 13.6596C2.03972 13.3518 1.92119 13.2571 1.61301 13.2808C1.39966 13.2808 1.16259 13.2808 0.949239 13.2335C0.380291 13.0677 -0.0227127 12.4995 0.000993417 11.9077C0.0246995 11.2921 0.475116 10.795 1.09148 10.6766C1.25742 10.6529 1.42336 10.6529 1.5893 10.6529C2.86944 10.6529 4.14957 10.6292 5.40599 10.6529C5.78529 10.6529 5.99864 10.5582 6.212 10.2268C8.29814 7.12539 10.3843 4.02401 12.4467 0.898946C12.5178 0.780573 12.5889 0.662199 12.6838 0.543826C13.1342 -0.0480413 13.9165 -0.166415 14.5091 0.236055C15.0781 0.638525 15.244 1.39611 14.8647 2.01166C14.438 2.69822 13.9639 3.36111 13.5372 4.04768C12.1622 6.10738 10.811 8.1434 9.43603 10.2031C9.34121 10.2978 9.27009 10.4398 9.15156 10.6292ZM4.74222 13.3045C4.74222 13.4229 4.74222 13.4939 4.76593 13.5886C5.61935 17.85 6.47277 22.1351 7.32619 26.3966C7.58695 27.6987 8.44038 28.3853 9.79163 28.3853C14.7936 28.3853 19.7956 28.3853 24.7976 28.3853C26.1726 28.3853 27.0023 27.675 27.2867 26.3019C28.0216 22.6086 28.7802 18.8917 29.5151 15.1985C29.6337 14.5592 29.7522 13.9437 29.8944 13.2808C21.4787 13.3045 13.1342 13.3045 4.74222 13.3045Z" fill="white"/>
</svg>
