<svg width="50" height="50" viewBox="0 0 50 50" fill="none" xmlns="http://www.w3.org/2000/svg">
<circle cx="25" cy="25" r="25" fill="#E47347"/>
<g clip-path="url(#clip0_139_65)">
<path d="M24.9991 11.4285C25.3572 11.5168 25.7261 11.5733 26.0703 11.6978C27.6619 12.2706 28.7294 13.3547 29.2121 14.9898C29.2244 15.0318 29.2433 15.0723 29.2614 15.1194C31.0588 15.1194 32.8562 15.1194 34.7123 15.1194C34.2861 14.6929 33.894 14.3033 33.5056 13.9108C33.4128 13.8174 33.3186 13.7211 33.2446 13.6132C33.0772 13.3663 33.1178 13.0389 33.3258 12.8413C33.5266 12.6508 33.844 12.6218 34.081 12.7804C34.168 12.8391 34.2477 12.9108 34.3223 12.9854C35.0551 13.7146 35.7863 14.4452 36.5176 15.1766C36.9286 15.5872 36.9322 15.9065 36.5292 16.3099C35.7863 17.0536 35.0435 17.798 34.2948 18.5366C34.1904 18.6394 34.0643 18.7357 33.9303 18.7886C33.6911 18.8827 33.4208 18.785 33.27 18.5858C33.1048 18.3679 33.0939 18.1043 33.2497 17.8747C33.3084 17.7878 33.3816 17.7096 33.4563 17.6343C33.8607 17.2274 34.2665 16.8233 34.7057 16.3845C32.9286 16.3845 31.195 16.3845 29.4643 16.3845C29.3955 16.7936 29.3723 17.223 29.244 17.6184C29.0846 18.1086 28.8606 18.5815 28.6229 19.0406C28.4403 19.3933 28.0634 19.4859 27.7677 19.3085C27.4655 19.1282 27.3669 18.7676 27.5677 18.4294C27.8503 17.9537 28.0576 17.4584 28.1475 16.908C28.4707 14.921 27.0139 12.9557 25.0209 12.7037C22.9524 12.4423 21.1594 13.7653 20.8318 15.8204C20.697 16.6647 20.8521 17.4721 21.2855 18.2187C21.3341 18.3027 21.3891 18.3838 21.4312 18.4707C21.5877 18.7958 21.4957 19.1398 21.213 19.3049C20.9289 19.4707 20.5593 19.4019 20.3846 19.0862C20.1433 18.6488 19.9143 18.1955 19.7592 17.7234C19.62 17.3012 19.5881 16.8443 19.5048 16.3808C17.7958 16.3808 16.0615 16.3808 14.2924 16.3808C14.3576 16.4561 14.4032 16.5155 14.4554 16.5684C14.8359 16.95 15.2215 17.3266 15.5984 17.7125C15.8984 18.0203 15.9158 18.399 15.6549 18.6525C15.4012 18.8994 15.0316 18.882 14.7352 18.5895C13.9495 17.811 13.1675 17.0311 12.3906 16.2461C12.0608 15.9138 12.0616 15.5814 12.3906 15.249C13.1675 14.464 13.9495 13.6834 14.7345 12.9064C15.0294 12.6139 15.3998 12.5965 15.6542 12.8434C15.9144 13.0961 15.8977 13.4778 15.5969 13.7841C15.1708 14.2186 14.7345 14.6444 14.2655 15.1107C16.1115 15.1107 17.9052 15.1107 19.7244 15.1107C19.8795 14.493 20.1505 13.9159 20.5484 13.4003C21.3804 12.322 22.4668 11.6768 23.8171 11.4784C23.8765 11.4697 23.9337 11.4451 23.9917 11.4277C24.3273 11.4285 24.6628 11.4285 24.9991 11.4285Z" fill="white"/>
<path d="M22.0236 24.0207C22.0236 23.8831 22.0236 23.7868 22.0236 23.6905C22.0236 21.2878 22.0236 18.8851 22.0236 16.4824C22.0236 15.4237 22.4781 14.6366 23.426 14.1456C24.8596 13.4041 26.778 14.4041 26.9056 16.0074C26.9875 17.0349 26.9476 18.0719 26.9592 19.1045C26.9635 19.5086 26.9599 19.9134 26.9599 20.3565C27.863 19.9163 28.7356 19.9235 29.5524 20.4594C30.3779 21.0003 30.6902 21.82 30.667 22.8215C31.5636 22.3776 32.4333 22.3928 33.2501 22.9221C34.0784 23.4587 34.3981 24.2741 34.3691 25.2213C34.7445 25.1395 35.096 25.0193 35.4548 24.9917C36.6289 24.9019 37.6363 25.6406 37.9522 26.7767C38.1298 27.414 38.0624 28.0585 38.0139 28.6986C37.7899 31.6553 37.018 34.4787 35.9099 37.2188C35.5243 38.1725 34.951 38.5671 33.9212 38.5671C30.8265 38.5671 27.7325 38.5621 24.6378 38.5715C23.9044 38.5737 23.334 38.3057 22.8658 37.7387C21.1365 35.6445 19.9516 33.2694 19.1645 30.6835C18.7883 29.4488 18.5166 28.191 18.3383 26.9143C18.2513 26.2916 18.3383 25.6797 18.5999 25.1025C19.1297 23.9338 20.5328 23.4102 21.7656 23.9149C21.8374 23.9439 21.9091 23.9736 22.0236 24.0207ZM23.2506 21.2385C23.2506 22.8193 23.2506 24.4008 23.2499 25.9816C23.2499 26.0874 23.2514 26.1953 23.2325 26.2981C23.1767 26.5971 22.9296 26.8021 22.6389 26.8035C22.336 26.805 22.0867 26.5914 22.0331 26.28C22.0106 26.1496 22.0033 26.0157 21.9751 25.8868C21.862 25.3806 21.4656 25.0352 20.9351 24.9722C20.4038 24.9092 19.9327 25.125 19.7443 25.6101C19.6204 25.9288 19.5392 26.3003 19.5711 26.6355C19.6363 27.3184 19.7631 27.9984 19.9132 28.6689C20.5951 31.7269 21.8243 34.5301 23.8333 36.9654C24.0435 37.221 24.2747 37.3405 24.603 37.3397C27.7151 37.3347 30.8272 37.3368 33.9386 37.3361C34.4198 37.3361 34.5742 37.2239 34.7554 36.7785C35.6171 34.6626 36.2672 32.4851 36.5919 30.2222C36.7209 29.3243 36.7774 28.414 36.8209 27.5067C36.8484 26.9317 36.4723 26.4248 35.9983 26.264C35.5381 26.1084 34.9576 26.2474 34.6677 26.6674C34.4959 26.9158 34.4328 27.2431 34.343 27.5414C34.2625 27.8079 34.0748 27.9926 33.8081 28.0179C33.5523 28.0418 33.2943 27.9115 33.2037 27.6768C33.1515 27.5407 33.1319 27.385 33.1305 27.238C33.1225 26.4697 33.137 25.7007 33.1203 24.9324C33.1058 24.2785 32.5847 23.7708 31.9325 23.7397C31.3084 23.71 30.7468 24.2118 30.6743 24.8614C30.6649 24.949 30.6496 25.0366 30.6264 25.1214C30.5373 25.4494 30.2126 25.6319 29.8858 25.5406C29.5785 25.4545 29.4306 25.2343 29.4284 24.8259C29.4234 24.1105 29.4299 23.395 29.4248 22.6796C29.4234 22.513 29.4176 22.3407 29.3755 22.1814C29.2212 21.5977 28.6885 21.2378 28.0739 21.2849C27.5115 21.3276 27.0447 21.7838 26.9701 22.3631C26.9599 22.442 26.9563 22.5217 26.9396 22.5992C26.8664 22.9352 26.6164 23.1336 26.3018 23.1104C25.983 23.0873 25.7467 22.8606 25.738 22.5203C25.722 21.8931 25.7293 21.266 25.7293 20.6389C25.7286 19.2522 25.7322 17.8655 25.7278 16.4788C25.7249 15.7401 25.2553 15.1905 24.6009 15.1406C23.8457 15.0826 23.2557 15.646 23.2528 16.4411C23.247 18.0407 23.2506 19.6396 23.2506 21.2385Z" fill="white"/>
</g>
<defs>
<clipPath id="clip0_139_65">
<rect width="25.923" height="27.1429" fill="white" transform="translate(12.1436 11.4287)"/>
</clipPath>
</defs>
</svg>
