<svg width="24" height="25" viewBox="0 0 24 25" fill="none" xmlns="http://www.w3.org/2000/svg">
<path d="M0.149132 24.5218C0.117649 24.5218 0.0866353 24.5218 0.0551518 24.5218C0.0645499 24.4603 0.0701887 24.3982 0.083346 24.3376C0.524115 22.333 0.963473 20.3284 1.40941 18.3252C1.45405 18.1255 1.43573 17.9606 1.3394 17.7717C0.0448139 15.2272 -0.339096 12.5539 0.309369 9.76642C2.1044 2.05015 10.8465 -1.83172 17.7865 1.99282C22.3431 4.50398 24.7918 9.71238 23.7697 14.7197C22.2125 22.3509 13.8191 26.5105 6.80953 23.1304C6.68924 23.0722 6.52242 23.0534 6.39179 23.0825C4.8834 23.4157 3.37736 23.7592 1.8718 24.105C1.29616 24.2371 0.723353 24.3823 0.149132 24.5218ZM2.50851 22.0323C2.58511 22.0172 2.62223 22.0111 2.65841 22.0032C3.9591 21.7076 5.26073 21.4158 6.55954 21.1122C6.77711 21.0615 6.95285 21.0831 7.15397 21.1912C9.54625 22.4759 12.0687 22.7837 14.6832 22.0689C19.7868 20.6738 22.9375 15.6383 21.9399 10.5333C20.8709 5.06175 15.4228 1.43457 9.96352 2.59241C6.94956 3.23148 4.65879 4.91373 3.13677 7.59641C2.1091 9.40788 1.72049 11.3711 1.94181 13.4429C2.09782 14.9081 2.59357 16.2642 3.33554 17.5344C3.39616 17.6382 3.43234 17.7872 3.41073 17.9023C3.31346 18.4154 3.19081 18.9243 3.07851 19.4347C2.89101 20.2875 2.70446 21.1404 2.50851 22.0323Z" fill="white"/>
<path d="M8.50554 7.17631C9.00599 7.05649 9.25316 7.35723 9.42514 7.79611C9.67325 8.42766 9.93452 9.05404 10.1991 9.67948C10.278 9.86651 10.3015 10.0488 10.1822 10.2138C9.98245 10.4901 9.77663 10.764 9.55155 11.0196C9.28793 11.319 9.27101 11.3923 9.47777 11.7367C10.3607 13.2042 11.5862 14.2718 13.1768 14.9151C13.4715 15.034 13.5814 15.0148 13.7887 14.7648C14.0678 14.4283 14.346 14.0905 14.6124 13.7437C14.7567 13.5557 14.9277 13.4801 15.1415 13.5806C15.9314 13.9528 16.7204 14.3273 17.4995 14.7211C17.5892 14.7662 17.6639 14.9382 17.6625 15.0505C17.6531 15.7906 17.4562 16.4357 16.8036 16.8995C15.9493 17.5062 15.0419 17.5616 14.0589 17.3271C11.4969 16.7163 9.53322 15.2535 8.01356 13.1431C7.4882 12.4138 6.95299 11.6897 6.69219 10.8119C6.3266 9.58174 6.54041 8.48546 7.44262 7.54096C7.73161 7.23834 8.07088 7.12133 8.50554 7.17631Z" fill="white"/>
</svg>
